<svg width="2732" height="499" viewBox="0 0 2732 499" fill="none" xmlns="http://www.w3.org/2000/svg">
<path d="M1816 409.251H1899.32V305.68H1953.11C2034.31 305.68 2089.16 260.486 2089.16 190.811C2089.16 119.724 2034.31 75 1953.11 75H1816V409.251ZM1899.32 237.418V143.263H1945.2C1978.94 143.263 2004.78 155.032 2004.78 190.811C2004.78 226.59 1978.94 237.418 1945.2 237.418H1899.32Z" fill="#1C1C1C"/>
<path d="M2235.37 413.959C2283.88 413.959 2312.36 390.42 2316.58 381.475H2318.16V409.251H2399.89V164.447H2318.16V192.223H2316.58C2312.36 183.278 2283.88 159.74 2235.37 159.74C2173.14 159.74 2104.59 201.639 2104.59 286.849C2104.59 372.06 2173.14 413.959 2235.37 413.959Z" fill="#1C1C1C"/>
<path d="M2494.36 498.698H2574.51L2616.7 409.251L2731.66 164.447H2648.34L2578.73 323.57L2509.12 164.447H2425.81L2539.71 406.426L2494.36 498.698Z" fill="#1C1C1C"/>
<path fill-rule="evenodd" clip-rule="evenodd" d="M2289.53 352.172L2162.47 287.21L2289.53 222.248V258.343H2399.86V316.077H2289.53V352.172Z" fill="white"/>
<path d="M26.06 99.1635H104.24L186.812 300.616H190.326L272.898 99.1635H351.078V399H289.588V203.843H287.099L209.505 397.536H167.633L90.0388 203.111H87.5499V399H26.06V99.1635ZM454.989 399H387.057L490.565 99.1635H572.259L675.62 399H607.689L532.583 167.681H530.241L454.989 399ZM450.743 281.144H611.202V330.629H450.743V281.144ZM962.5 99.1635V399H907.745L777.298 210.285H775.102V399H711.709V99.1635H767.343L896.764 287.733H899.4V99.1635H962.5ZM1003.46 151.43V99.1635H1249.71V151.43H1157.91V399H1095.25V151.43H1003.46ZM1290.26 399V99.1635H1353.66V346.734H1482.2V399H1290.26ZM1524.18 399V99.1635H1726.22V151.43H1587.57V222.875H1715.82V275.142H1587.57V346.734H1726.8V399H1524.18Z" fill="black"/>
</svg>
