<svg width="603" height="143" viewBox="0 0 603 143" fill="none" xmlns="http://www.w3.org/2000/svg">
<path d="M356.117 115.92H378.581V84.6813H393.084C414.979 84.6813 429.766 71.0499 429.766 50.0349C429.766 28.594 414.979 15.1046 393.084 15.1046H356.117V115.92ZM378.581 64.0923V35.6936H390.951C400.05 35.6936 407.017 39.2435 407.017 50.0349C407.017 60.8264 400.05 64.0923 390.951 64.0923H378.581Z" fill="#1C1C1C"/>
<path d="M469.187 117.34C482.267 117.34 489.945 110.24 491.082 107.542H491.509V115.92H513.546V42.0833H491.509V50.4609H491.082C489.945 47.763 482.267 40.6634 469.187 40.6634C452.41 40.6634 433.927 53.3008 433.927 79.0016C433.927 104.702 452.41 117.34 469.187 117.34Z" fill="#1C1C1C"/>
<path d="M539.016 142.898H560.627L572.002 115.92L602.997 42.0833H580.532L561.765 90.077L542.997 42.0833H520.533L551.244 115.068L539.016 142.898Z" fill="#1C1C1C"/>
<path fill-rule="evenodd" clip-rule="evenodd" d="M483.774 98.7041L449.516 79.1104L483.774 59.5168V70.4038H513.521V87.8171H483.774V98.7041Z" fill="white"/>
<path d="M7.45662 28.207H29.8265L53.4531 85.8492H54.4585L78.0851 28.207H100.455V114H82.8607V58.1591H82.1485L59.9462 113.581H47.9654L25.763 57.9497H25.0509V114H7.45662V28.207ZM187.159 28.207V114H171.492L134.167 60.0023H133.538V114H115.4V28.207H131.318L168.35 82.1627H169.104V28.207H187.159ZM202.146 114V28.207H259.955V43.1621H220.285V63.605H256.981V78.5601H220.285V99.0449H260.123V114H202.146ZM274.376 114V28.207H332.186V43.1621H292.515V63.605H329.212V78.5601H292.515V99.0449H332.354V114H274.376Z" fill="black"/>
</svg>
